<svg width="22" height="21" viewBox="0 0 22 21" fill="none" xmlns="http://www.w3.org/2000/svg">
<path d="M3.81468 14.9699V10.1553C3.81468 9.848 3.92047 9.58958 4.13205 9.37998C4.34365 9.17036 4.60308 9.06555 4.91033 9.06555C5.21758 9.06555 5.476 9.17036 5.6856 9.37998C5.8952 9.58958 6 9.848 6 10.1553V14.9759C6 15.2831 5.8952 15.5416 5.6856 15.7512C5.476 15.9608 5.21758 16.0656 4.91033 16.0656C4.60308 16.0656 4.34365 15.9598 4.13205 15.7482C3.92047 15.5366 3.81468 15.2772 3.81468 14.9699ZM9.91033 14.9759V10.1553C9.91033 9.848 10.0151 9.58958 10.2247 9.37998C10.4343 9.17036 10.6928 9.06555 11 9.06555C11.3073 9.06555 11.5657 9.17036 11.7753 9.37998C11.9849 9.58958 12.0897 9.848 12.0897 10.1553V14.9759C12.0897 15.2831 11.9849 15.5416 11.7753 15.7512C11.5657 15.9608 11.3073 16.0656 11 16.0656C10.6928 16.0656 10.4343 15.9608 10.2247 15.7512C10.0151 15.5416 9.91033 15.2831 9.91033 14.9759ZM1.93425 20.1553C1.61504 20.1553 1.34564 20.0455 1.12608 19.8259C0.906511 19.6063 0.796736 19.3369 0.796753 19.0177C0.796753 18.6985 0.906536 18.4291 1.1261 18.2096C1.34567 17.99 1.61506 17.8802 1.93428 17.8802H20.0658C20.385 17.8802 20.6544 17.99 20.874 18.2096C21.0935 18.4291 21.2033 18.6985 21.2033 19.0177C21.2033 19.3369 21.0935 19.6063 20.874 19.8259C20.6544 20.0455 20.385 20.1553 20.0658 20.1553H1.93425ZM16 14.9699V10.1553C16 9.848 16.1058 9.58958 16.3174 9.37998C16.529 9.17036 16.7884 9.06555 17.0957 9.06555C17.4029 9.06555 17.6613 9.17036 17.8709 9.37998C18.0805 9.58958 18.1853 9.848 18.1853 10.1553V14.9759C18.1853 15.2831 18.0805 15.5416 17.8709 15.7512C17.6613 15.9608 17.4029 16.0656 17.0957 16.0656C16.7884 16.0656 16.529 15.9598 16.3174 15.7482C16.1058 15.5366 16 15.2772 16 14.9699ZM20.0419 7.24493H1.84023C1.55036 7.24493 1.30398 7.14348 1.10108 6.94058C0.898178 6.73768 0.796736 6.49129 0.796753 6.20143V5.55578C0.796753 5.34853 0.849561 5.16529 0.955178 5.00605C1.06079 4.84682 1.20056 4.71955 1.37448 4.62425L9.98045 0.324254C10.2997 0.167004 10.6395 0.0883789 11 0.0883789C11.3605 0.0883789 11.7004 0.167004 12.0196 0.324254L20.5636 4.59328C20.7709 4.68856 20.9293 4.83249 21.0389 5.02508C21.1485 5.21764 21.2033 5.42353 21.2033 5.64273V6.07753C21.2033 6.4047 21.0915 6.68105 20.868 6.9066C20.6444 7.13215 20.369 7.24493 20.0419 7.24493ZM5.76088 4.9699H16.2391L11 2.37535L5.76088 4.9699Z" fill="#E1E1E1"/>
</svg>
