<svg width="28" height="28" viewBox="0 0 28 28" fill="none" xmlns="http://www.w3.org/2000/svg">
<rect y="0.5" width="28" height="27" rx="4" fill="#C81919"/>
<path d="M8 9.99992H9.33333M9.33333 9.99992H20M9.33333 9.99992V19.3333C9.33333 19.6869 9.47381 20.026 9.72386 20.2761C9.97391 20.5261 10.313 20.6666 10.6667 20.6666H17.3333C17.687 20.6666 18.0261 20.5261 18.2761 20.2761C18.5262 20.026 18.6667 19.6869 18.6667 19.3333V9.99992H9.33333ZM11.3333 9.99992V8.66659C11.3333 8.31296 11.4738 7.97382 11.7239 7.72378C11.9739 7.47373 12.313 7.33325 12.6667 7.33325H15.3333C15.687 7.33325 16.0261 7.47373 16.2761 7.72378C16.5262 7.97382 16.6667 8.31296 16.6667 8.66659V9.99992M12.6667 13.3333V17.3333M15.3333 13.3333V17.3333" stroke="white" stroke-width="1.3" stroke-linecap="round" stroke-linejoin="round"/>
</svg>
