<svg width="28" height="28" viewBox="0 0 28 28" fill="none" xmlns="http://www.w3.org/2000/svg">
<rect y="0.5" width="28" height="27" rx="4" fill="#34B53A"/>
<path d="M17.0649 8.9178C17.1974 8.78534 17.3546 8.68027 17.5277 8.60858C17.7007 8.5369 17.8862 8.5 18.0735 8.5C18.2609 8.5 18.4464 8.5369 18.6194 8.60858C18.7925 8.68027 18.9497 8.78534 19.0822 8.9178C19.2147 9.05026 19.3197 9.20751 19.3914 9.38057C19.4631 9.55364 19.5 9.73913 19.5 9.92645C19.5 10.1138 19.4631 10.2993 19.3914 10.4723C19.3197 10.6454 19.2147 10.8026 19.0822 10.9351L12.2738 17.7435L9.5 18.5L10.2565 15.7262L17.0649 8.9178Z" stroke="white" stroke-width="1.3" stroke-linecap="round" stroke-linejoin="round"/>
</svg>
