<svg width="20" height="21" viewBox="0 0 20 21" fill="none" xmlns="http://www.w3.org/2000/svg">
<path d="M10.8332 14.5327C9.9127 14.5327 9.1665 13.7865 9.1665 12.866V11.1994C9.1665 10.2789 9.9127 9.53271 10.8332 9.53271M9.99984 2.03271C8.90549 2.03271 7.82185 2.24826 6.81081 2.66705C5.79976 3.08584 4.8811 3.69967 4.10728 4.47349C2.54448 6.03629 1.6665 8.15591 1.6665 10.366C1.6665 12.5762 2.54448 14.6958 4.10728 16.2586C4.8811 17.0324 5.79976 17.6463 6.81081 18.065C7.82185 18.4838 8.90549 18.6994 9.99984 18.6994C12.21 18.6994 14.3296 17.8214 15.8924 16.2586C17.4552 14.6958 18.3332 12.5762 18.3332 10.366C18.3332 9.2717 18.1176 8.18807 17.6988 7.17702C17.28 6.16597 16.6662 5.24731 15.8924 4.47349C15.1186 3.69967 14.1999 3.08584 13.1889 2.66705C12.1778 2.24826 11.0942 2.03271 9.99984 2.03271Z" fill="#FFB200"/>
<path d="M9.1665 9.53271H10.8332V14.5327H9.1665V9.53271Z" fill="white"/>
<path d="M9.99984 7.86613C10.4601 7.86613 10.8332 7.49303 10.8332 7.0328C10.8332 6.57256 10.4601 6.19946 9.99984 6.19946C9.5396 6.19946 9.1665 6.57256 9.1665 7.0328C9.1665 7.49303 9.5396 7.86613 9.99984 7.86613Z" fill="white"/>
</svg>
