<svg width="13" height="13" viewBox="0 0 13 13" fill="none" xmlns="http://www.w3.org/2000/svg">
<path d="M1.75642 12.2501C1.33547 12.2501 0.979167 12.1042 0.6875 11.8126C0.395833 11.5209 0.25 11.1646 0.25 10.7436V9.10904C0.25 8.9317 0.309833 8.7832 0.4295 8.66354C0.549153 8.54389 0.697653 8.48406 0.875 8.48406C1.05235 8.48406 1.20085 8.54389 1.3205 8.66354C1.44015 8.7832 1.49998 8.9317 1.49998 9.10904V10.7436C1.49998 10.8078 1.52669 10.8665 1.5801 10.92C1.63353 10.9734 1.69231 11.0001 1.75642 11.0001H11.2435C11.3077 11.0001 11.3664 10.9734 11.4199 10.92C11.4733 10.8665 11.5 10.8078 11.5 10.7436V9.10904C11.5 8.9317 11.5598 8.7832 11.6795 8.66354C11.7991 8.54389 11.9476 8.48406 12.125 8.48406C12.3023 8.48406 12.4508 8.54389 12.5705 8.66354C12.6901 8.7832 12.75 8.9317 12.75 9.10904V10.7436C12.75 11.1646 12.6041 11.5209 12.3125 11.8126C12.0208 12.1042 11.6645 12.2501 11.2435 12.2501H1.75642ZM5.875 2.1571L4.27244 3.75967C4.14851 3.8836 4.00134 3.94476 3.83094 3.94317C3.66053 3.94156 3.51069 3.87612 3.38142 3.74685C3.26069 3.61758 3.1982 3.47122 3.19394 3.30777C3.18966 3.14431 3.25215 2.99795 3.38142 2.86867L5.97275 0.277355C6.05074 0.199369 6.133 0.144348 6.21954 0.112292C6.30607 0.0802364 6.39955 0.064209 6.49998 0.064209C6.60041 0.064209 6.69389 0.0802364 6.78042 0.112292C6.86696 0.144348 6.94922 0.199369 7.02721 0.277355L9.61854 2.86867C9.74247 2.9926 9.80363 3.13763 9.80202 3.30375C9.80042 3.46988 9.73926 3.61758 9.61854 3.74685C9.48926 3.87612 9.34076 3.94289 9.17304 3.94717C9.00531 3.95145 8.8568 3.88895 8.72752 3.75967L7.12496 2.1571V8.53215C7.12496 8.70948 7.06513 8.85798 6.94548 8.97765C6.82583 9.0973 6.67733 9.15713 6.49998 9.15713C6.32263 9.15713 6.17413 9.0973 6.05448 8.97765C5.93483 8.85798 5.875 8.70948 5.875 8.53215V2.1571Z" fill="#4791F9"/>
</svg>
