<svg width="28" height="27" viewBox="0 0 28 27" fill="none" xmlns="http://www.w3.org/2000/svg">
<rect width="28" height="27" rx="4" fill="#FFB200"/>
<path d="M14 16.3359C15.0417 16.3359 15.9271 15.9714 16.6562 15.2422C17.3854 14.513 17.75 13.6276 17.75 12.5859C17.75 11.5443 17.3854 10.6589 16.6562 9.92969C15.9271 9.20052 15.0417 8.83594 14 8.83594C12.9583 8.83594 12.0729 9.20052 11.3438 9.92969C10.6146 10.6589 10.25 11.5443 10.25 12.5859C10.25 13.6276 10.6146 14.513 11.3438 15.2422C12.0729 15.9714 12.9583 16.3359 14 16.3359ZM14 14.8359C13.375 14.8359 12.8438 14.6172 12.4062 14.1797C11.9688 13.7422 11.75 13.2109 11.75 12.5859C11.75 11.9609 11.9688 11.4297 12.4062 10.9922C12.8438 10.5547 13.375 10.3359 14 10.3359C14.625 10.3359 15.1562 10.5547 15.5938 10.9922C16.0312 11.4297 16.25 11.9609 16.25 12.5859C16.25 13.2109 16.0312 13.7422 15.5938 14.1797C15.1562 14.6172 14.625 14.8359 14 14.8359ZM14 18.8359C12.1389 18.8359 10.441 18.3359 8.90625 17.3359C7.37153 16.3359 6.15972 15.0165 5.27083 13.3776C5.20139 13.2526 5.14931 13.1241 5.11458 12.9922C5.07986 12.8602 5.0625 12.7248 5.0625 12.5859C5.0625 12.447 5.07986 12.3116 5.11458 12.1797C5.14931 12.0477 5.20139 11.9193 5.27083 11.7943C6.15972 10.1554 7.37153 8.83594 8.90625 7.83594C10.441 6.83594 12.1389 6.33594 14 6.33594C15.8611 6.33594 17.559 6.83594 19.0938 7.83594C20.6285 8.83594 21.8403 10.1554 22.7292 11.7943C22.7986 11.9193 22.8507 12.0477 22.8854 12.1797C22.9201 12.3116 22.9375 12.447 22.9375 12.5859C22.9375 12.7248 22.9201 12.8602 22.8854 12.9922C22.8507 13.1241 22.7986 13.2526 22.7292 13.3776C21.8403 15.0165 20.6285 16.3359 19.0938 17.3359C17.559 18.3359 15.8611 18.8359 14 18.8359ZM14 17.1693C15.5694 17.1693 17.0104 16.7561 18.3229 15.9297C19.6354 15.1033 20.6389 13.9887 21.3333 12.5859C20.6389 11.1832 19.6354 10.0686 18.3229 9.24219C17.0104 8.4158 15.5694 8.0026 14 8.0026C12.4306 8.0026 10.9896 8.4158 9.67708 9.24219C8.36458 10.0686 7.36111 11.1832 6.66667 12.5859C7.36111 13.9887 8.36458 15.1033 9.67708 15.9297C10.9896 16.7561 12.4306 17.1693 14 17.1693Z" fill="white"/>
</svg>
