<svg width="21" height="20" viewBox="0 0 21 20" fill="none" xmlns="http://www.w3.org/2000/svg">
<path d="M10.5 13.3333C11.5417 13.3333 12.4271 12.9687 13.1562 12.2396C13.8854 11.5104 14.25 10.625 14.25 9.58331C14.25 8.54165 13.8854 7.65623 13.1562 6.92706C12.4271 6.1979 11.5417 5.83331 10.5 5.83331C9.45833 5.83331 8.57292 6.1979 7.84375 6.92706C7.11458 7.65623 6.75 8.54165 6.75 9.58331C6.75 10.625 7.11458 11.5104 7.84375 12.2396C8.57292 12.9687 9.45833 13.3333 10.5 13.3333ZM10.5 11.8333C9.875 11.8333 9.34375 11.6146 8.90625 11.1771C8.46875 10.7396 8.25 10.2083 8.25 9.58331C8.25 8.95831 8.46875 8.42706 8.90625 7.98956C9.34375 7.55206 9.875 7.33331 10.5 7.33331C11.125 7.33331 11.6562 7.55206 12.0938 7.98956C12.5312 8.42706 12.75 8.95831 12.75 9.58331C12.75 10.2083 12.5312 10.7396 12.0938 11.1771C11.6562 11.6146 11.125 11.8333 10.5 11.8333ZM10.5 15.8333C8.63889 15.8333 6.94097 15.3333 5.40625 14.3333C3.87153 13.3333 2.65972 12.0139 1.77083 10.375C1.70139 10.25 1.64931 10.1215 1.61458 9.98956C1.57986 9.85762 1.5625 9.7222 1.5625 9.58331C1.5625 9.44442 1.57986 9.30901 1.61458 9.17706C1.64931 9.04512 1.70139 8.91665 1.77083 8.79165C2.65972 7.15276 3.87153 5.83331 5.40625 4.83331C6.94097 3.83331 8.63889 3.33331 10.5 3.33331C12.3611 3.33331 14.059 3.83331 15.5938 4.83331C17.1285 5.83331 18.3403 7.15276 19.2292 8.79165C19.2986 8.91665 19.3507 9.04512 19.3854 9.17706C19.4201 9.30901 19.4375 9.44442 19.4375 9.58331C19.4375 9.7222 19.4201 9.85762 19.3854 9.98956C19.3507 10.1215 19.2986 10.25 19.2292 10.375C18.3403 12.0139 17.1285 13.3333 15.5938 14.3333C14.059 15.3333 12.3611 15.8333 10.5 15.8333ZM10.5 14.1666C12.0694 14.1666 13.5104 13.7535 14.8229 12.9271C16.1354 12.1007 17.1389 10.9861 17.8333 9.58331C17.1389 8.18054 16.1354 7.06595 14.8229 6.23956C13.5104 5.41317 12.0694 4.99998 10.5 4.99998C8.93056 4.99998 7.48958 5.41317 6.17708 6.23956C4.86458 7.06595 3.86111 8.18054 3.16667 9.58331C3.86111 10.9861 4.86458 12.1007 6.17708 12.9271C7.48958 13.7535 8.93056 14.1666 10.5 14.1666Z" fill="#FFB200"/>
</svg>
